<svg width="154" height="29" viewBox="0 0 154 29" fill="none" xmlns="http://www.w3.org/2000/svg">
<path d="M19.4517 3.18671H18.2455C17.3934 3.18671 16.7051 3.81608 16.7051 4.58789V14.1943L20.9988 15.0137V4.58789C20.9988 3.81608 20.3039 3.18671 19.4517 3.18671Z" fill="#F17041"/>
<path d="M25.4459 -0.00108719H24.2397C23.3876 -0.00108719 22.6992 0.628289 22.6992 1.40009V15.3467L26.993 16.166V1.40009C26.993 0.628289 26.2982 -0.00108719 25.4459 -0.00108719Z" fill="#F17041"/>
<path d="M13.4537 7.1501H12.254C11.3953 7.1501 10.707 7.77948 10.707 8.55129V13.0517L15.0007 13.8711V8.55129C15.0007 7.77948 14.3059 7.1501 13.4537 7.1501Z" fill="#F17041"/>
<path d="M6.03474 17.3092C6.03322 17.3134 6.03322 17.3162 6.03169 17.3204C5.84268 18.1401 5.04509 18.7011 4.15377 18.7011C4.02321 18.7011 3.89257 18.6871 3.75737 18.6663C2.72154 18.4644 2.05924 17.5444 2.27744 16.6064C2.46493 15.7866 3.26403 15.2257 4.15377 15.2257C4.28447 15.2257 4.41503 15.234 4.55031 15.2605C5.20492 15.3857 5.71205 15.8019 5.93947 16.328C6.07163 16.63 6.11157 16.9682 6.03474 17.3092ZM29.0452 17.8718C27.3539 17.5484 25.1451 17.1266 22.7158 16.662C22.7143 16.662 22.7097 16.662 22.7066 16.6606C22.6636 16.6523 22.5191 16.6245 22.2855 16.5799C22.2364 16.5701 22.1872 16.5618 22.1365 16.5521C22.0873 16.5423 22.0381 16.5326 21.9874 16.5229C21.5525 16.4407 20.944 16.3238 20.2125 16.1846C20.1511 16.1721 20.0896 16.1609 20.0281 16.1485C19.4272 16.0343 18.7511 15.9049 18.0273 15.7671C17.9412 15.7504 17.8567 15.7337 17.7706 15.7184C17.6232 15.6891 17.474 15.6613 17.3235 15.632C17.2082 15.6098 17.0929 15.5875 16.9762 15.5667C16.1233 15.4025 15.2274 15.2312 14.3238 15.06C14.1932 15.035 14.0641 15.01 13.935 14.9849C13.6461 14.9292 13.3557 14.8736 13.0668 14.8192C12.6903 14.7469 12.3154 14.6745 11.945 14.6049C11.8574 14.5882 11.7713 14.5715 11.6852 14.5548C11.5515 14.5297 11.4179 14.5047 11.2857 14.4782C11.0091 14.4254 10.7371 14.3739 10.4713 14.3224C10.1639 14.2653 9.86117 14.2069 9.56302 14.1498C8.46431 13.9396 7.48236 13.7517 6.71397 13.6056C6.63097 13.5889 6.54804 13.5735 6.46657 13.5583C6.17764 13.5026 5.92408 13.4538 5.71357 13.4135C5.69513 13.4107 5.67668 13.4066 5.65977 13.4038C5.2633 13.3286 5.0297 13.284 5.00973 13.2799C4.72087 13.227 4.43507 13.2006 4.14919 13.2006C2.22828 13.2006 0.501026 14.4156 0.0906897 16.1861C-0.38413 18.2181 1.05267 20.2168 3.29787 20.6426C3.58368 20.6983 3.87413 20.7248 4.15377 20.7248C4.69161 20.7248 5.21414 20.6288 5.69818 20.4534L6.42046 20.2933C6.89993 22.1333 7.90337 23.8216 9.31258 25.1953C10.9353 26.7709 13.0867 27.9316 15.5916 28.4118C16.4214 28.5719 17.2589 28.6484 18.0765 28.6484C23.6087 28.6484 28.5861 25.148 29.7693 20.0414L29.9737 19.165C30.1112 18.5751 29.6965 17.9963 29.0452 17.8718Z" fill="#F17041"/>
<path d="M43.4301 14.074C42.9123 14.074 42.5218 13.6543 42.2808 13.196C42.2034 13.0489 42.107 12.9208 41.9903 12.8146C41.7043 12.5316 41.2987 12.3775 40.798 12.3775C38.9846 12.3775 38.7226 14.074 38.7226 15.6929C38.7226 17.3122 38.9846 18.9825 40.798 18.9825C41.5195 18.9825 42.0878 18.5372 42.3945 17.9061C42.6205 17.4407 43.0307 17.0296 43.5481 17.0296H46.0163C46.6156 17.0296 47.087 17.5566 46.9275 18.1342C46.5736 19.4152 45.8951 20.4516 44.9959 21.2184C43.875 22.1694 42.3722 22.6836 40.7021 22.6836C36.9811 22.6836 34 19.9079 34 15.6929C34 11.4779 36.9811 8.67675 40.7021 8.67675C43.6141 8.67675 46.1416 10.0638 46.8356 13.0058C46.9694 13.5731 46.5015 14.074 45.9186 14.074H43.4301Z" fill="#262626"/>
<path d="M48.9688 4.99921C48.9688 4.44693 49.4165 3.99921 49.9687 3.99921H52.6919C53.2442 3.99921 53.6919 4.44693 53.6919 4.99921V10.4182C53.6919 10.4358 53.7062 10.4501 53.7238 10.4501C53.7336 10.4501 53.7428 10.4456 53.7489 10.438C54.5582 9.4161 55.6074 8.67677 57.603 8.67677C59.822 8.67677 61.8491 10.1416 61.8491 13.1999V21.3496C61.8491 21.9019 61.4014 22.3496 60.8491 22.3496H58.1263C57.574 22.3496 57.1263 21.9019 57.1263 21.3496V15.3592C57.1263 13.8169 56.9596 12.7374 55.5758 12.7374C54.7646 12.7374 53.6919 13.1744 53.6919 15.3076V21.3496C53.6919 21.9019 53.2442 22.3496 52.6919 22.3496H49.9688C49.4165 22.3496 48.9688 21.9019 48.9688 21.3496V4.99921Z" fill="#262626"/>
<path d="M71.9355 17.5951C71.9355 17.0377 71.3253 16.6575 70.7907 16.8157C70.5547 16.8856 70.315 16.9466 70.0753 17.004C69.0257 17.2608 68.4774 17.5435 68.4774 18.4431C68.4774 19.0597 69.0971 19.6767 69.9557 19.6767C71.0292 19.6767 71.8641 18.9825 71.9355 17.5951ZM76.4677 19.3685C76.4677 19.7821 76.4758 20.2177 76.5223 20.6462C76.6067 21.4252 76.0287 22.3496 75.2452 22.3496H72.737C72.4296 22.3496 72.1535 22.1523 72.104 21.8489C72.0628 21.5963 72.043 21.3326 72.0532 21.1231C72.0541 21.1052 72.0399 21.0902 72.0221 21.0902C72.0128 21.0902 72.0039 21.0944 71.998 21.1016C70.9965 22.3263 69.5462 22.6836 68.0241 22.6836C65.639 22.6836 63.6592 21.45 63.6592 18.6488C63.6592 14.4338 68.239 14.5879 70.6481 14.0995C71.2921 13.9712 71.9355 13.7655 71.9355 12.9176C71.9355 12.0177 71.1488 11.6837 70.385 11.6837C69.6446 11.6837 69.2067 11.8902 68.9522 12.1676C68.5898 12.5625 68.1972 13.0458 67.6612 13.0458H65.27C64.7028 13.0458 64.2353 12.5692 64.3636 12.0167C64.6579 10.7499 65.4029 9.94192 66.378 9.44778C67.5703 8.83084 69.1453 8.67675 70.5999 8.67675C76.5153 8.67675 76.4677 11.3239 76.4677 13.8941V19.3685Z" fill="#262626"/>
<path d="M78.9375 10.0108C78.9375 9.45849 79.3852 9.01077 79.9375 9.01077H82.4697C83.022 9.01077 83.4697 9.45849 83.4697 10.0108V11.115C83.4697 11.1312 83.4828 11.1442 83.4989 11.1442C83.5102 11.1442 83.5205 11.1376 83.5254 11.1275C84.2874 9.54441 85.2882 8.67706 86.9997 8.67706C87.2188 8.67706 87.4329 8.69329 87.6443 8.72326C88.0872 8.78608 88.3829 9.19103 88.3829 9.6384V11.9339C88.3829 12.633 87.6775 13.1041 86.9798 13.0597C86.8415 13.0509 86.6902 13.0461 86.5227 13.0461C84.662 13.0461 83.6606 14.2284 83.6606 17.0809V21.3496C83.6606 21.9019 83.2129 22.3496 82.6606 22.3496H79.9375C79.3852 22.3496 78.9375 21.9019 78.9375 21.3496V10.0108Z" fill="#262626"/>
<path d="M97.143 8.01098C97.143 8.56327 97.5907 9.01098 98.143 9.01098H98.6717C99.2239 9.01098 99.6717 9.4587 99.6717 10.011V11.1465C99.6717 11.6988 99.2239 12.1465 98.6717 12.1465H98.143C97.5907 12.1465 97.143 12.5942 97.143 13.1465V16.7985C97.143 18.0321 97.4053 18.5718 98.5981 18.5718C99.1664 18.5718 99.6717 19.0036 99.6717 19.5719V21.3498C99.6717 21.9021 99.2237 22.3531 98.6727 22.3906C98.0013 22.4362 97.306 22.5039 96.6423 22.5039C94.638 22.5039 92.4199 22.1699 92.4199 18.5202V13.1465C92.4199 12.5942 91.9721 12.1465 91.4199 12.1465H91.3213C90.769 12.1465 90.3213 11.6988 90.3213 11.1465V10.011C90.3213 9.4587 90.769 9.01098 91.3213 9.01098H91.4199C91.9721 9.01098 92.4199 8.56327 92.4199 8.01098V5.95037C92.4199 5.39808 92.8676 4.95037 93.4199 4.95037H96.143C96.6953 4.95037 97.143 5.39808 97.143 5.95037V8.01098Z" fill="#262626"/>
<path d="M107.78 11.0892C105.49 11.0892 104.321 12.9652 104.321 15.7925C104.321 18.4652 105.585 20.4701 107.78 20.4701C110.26 20.4701 111.191 18.1056 111.191 15.7925C111.191 13.3761 110.022 11.0892 107.78 11.0892ZM101.697 5.07267C101.697 4.52039 102.145 4.07267 102.697 4.07267H103.417C103.969 4.07267 104.417 4.52039 104.417 5.07267V10.8277C104.417 10.8444 104.43 10.8579 104.447 10.8579C104.458 10.8579 104.468 10.8521 104.473 10.8428C105.216 9.56638 106.76 8.77606 108.138 8.77606C112.026 8.77606 113.91 11.9629 113.91 15.8436C113.91 19.4158 112.24 22.7832 108.591 22.7832C106.927 22.7832 105.144 22.349 104.329 20.6152C104.324 20.6049 104.314 20.5981 104.303 20.5981C104.286 20.5981 104.273 20.6112 104.273 20.6273V21.5106C104.273 22.0145 103.865 22.4231 103.361 22.4231H102.697C102.145 22.4231 101.697 21.9754 101.697 21.4231V5.07267Z" fill="#262626"/>
<path d="M116.053 10.1344C116.053 9.58212 116.5 9.1344 117.053 9.1344H117.605C118.157 9.1344 118.605 9.58212 118.605 10.1344V11.6782C118.605 11.6928 118.617 11.7046 118.632 11.7046C118.644 11.7046 118.655 11.6961 118.657 11.684C118.979 10.2764 120.593 8.77457 122.254 8.77457C122.301 8.77457 122.344 8.77485 122.386 8.77539C122.897 8.78204 123.28 9.239 123.28 9.75006V10.5351C123.28 11.1404 122.75 11.5573 122.144 11.5504C122.133 11.5503 122.122 11.5502 122.111 11.5502C120.251 11.5502 118.772 13.1698 118.772 16.0992V21.4219C118.772 21.9742 118.324 22.4219 117.772 22.4219H117.053C116.5 22.4219 116.053 21.9742 116.053 21.4219V10.1344Z" fill="#262626"/>
<path d="M131.805 14.6084C132.378 14.6084 132.844 14.1221 132.687 13.5717C132.289 12.1772 131.241 11.0872 129.757 11.0872C128.213 11.0872 127.069 12.1225 126.667 13.5853C126.517 14.1314 126.984 14.6084 127.55 14.6084H131.805ZM127.513 16.5358C126.961 16.5358 126.502 16.9873 126.598 17.5311C126.889 19.1732 127.933 20.4682 129.829 20.4682C131.142 20.4682 132.023 19.9498 132.557 18.9277C132.757 18.5438 133.127 18.2575 133.56 18.2575H134.184C134.817 18.2575 135.296 18.8446 135.052 19.4288C134.148 21.594 132.137 22.7812 129.829 22.7812C125.965 22.7812 123.794 19.8767 123.794 15.7906C123.794 12.0123 126.084 8.77411 129.757 8.77411C133.353 8.77411 135.664 12.0068 135.632 15.6447C135.627 16.1533 135.193 16.5358 134.685 16.5358H127.513Z" fill="#262626"/>
<path d="M136.429 10.4105C136.245 9.77135 136.725 9.1344 137.39 9.1344H138.162C138.624 9.1344 139.025 9.45007 139.134 9.89843L141.352 19.0319C141.355 19.0455 141.368 19.0551 141.382 19.0551C141.396 19.0551 141.408 19.0454 141.411 19.0316L143.539 9.9073C143.644 9.45465 144.048 9.1344 144.513 9.1344H145.661C146.129 9.1344 146.535 9.45925 146.637 9.91615L148.676 19.0316C148.679 19.0454 148.691 19.0551 148.705 19.0551C148.719 19.0551 148.731 19.0458 148.734 19.0324L151.042 9.88961C151.154 9.44555 151.554 9.1344 152.012 9.1344H152.667C153.334 9.1344 153.814 9.77381 153.628 10.4136L150.345 21.7011C150.221 22.1282 149.83 22.4219 149.385 22.4219H148.139C147.674 22.4219 147.27 22.1011 147.165 21.6479L145.06 12.5757C145.057 12.5622 145.045 12.5525 145.031 12.5525C145.017 12.5525 145.005 12.5622 145.002 12.5758L142.919 21.6457C142.815 22.0999 142.411 22.4219 141.945 22.4219H140.632C140.186 22.4219 139.794 22.1266 139.671 21.6979L136.429 10.4105Z" fill="#262626"/>
</svg>
