<svg width="2353" height="609" viewBox="0 0 2353 609" fill="none" xmlns="http://www.w3.org/2000/svg">
<g clip-path="url(#clip0_1803_13539)">
<path d="M374.04 67.8205H350.845C334.459 67.8205 321.223 81.1831 321.223 97.5698V301.53L403.791 318.926V97.5698C403.791 81.1831 390.427 67.8205 374.04 67.8205Z" fill="#F17041"/>
<path d="M489.381 0.000579834H466.186C449.8 0.000579834 436.562 13.3633 436.562 29.7499V325.858L519.13 343.254V29.7499C519.13 13.3633 505.769 0.000579834 489.381 0.000579834Z" fill="#F17041"/>
<path d="M258.696 151.9H235.627C219.114 151.9 205.879 165.263 205.879 181.65V277.202L288.446 294.598V181.65C288.446 165.263 275.084 151.9 258.696 151.9Z" fill="#F17041"/>
<path d="M116.047 367.626C116.017 367.714 116.017 367.774 115.988 367.862C112.353 385.267 97.0159 397.176 79.8759 397.176C77.3653 397.176 74.8533 396.88 72.2533 396.438C52.3346 392.152 39.5986 372.619 43.7946 352.703C47.3999 335.298 62.7666 323.388 79.8759 323.388C82.3893 323.388 84.8999 323.566 87.5013 324.127C100.089 326.787 109.841 335.623 114.215 346.792C116.756 353.204 117.524 360.386 116.047 367.626ZM558.532 379.57C526.008 372.704 483.533 363.747 436.82 353.884C436.791 353.884 436.701 353.884 436.643 353.855C435.815 353.678 433.037 353.087 428.545 352.14C427.6 351.934 426.655 351.756 425.679 351.55C424.733 351.343 423.788 351.136 422.813 350.93C414.449 349.186 402.748 346.704 388.681 343.748C387.5 343.483 386.317 343.246 385.136 342.98C373.581 340.558 360.579 337.81 346.66 334.883C345.005 334.528 343.38 334.175 341.725 333.85C338.889 333.228 336.021 332.638 333.127 332.016C330.909 331.544 328.693 331.071 326.448 330.628C310.047 327.142 292.819 323.506 275.443 319.871C272.932 319.34 270.449 318.808 267.967 318.276C262.412 317.094 256.827 315.912 251.271 314.759C244.031 313.223 236.821 311.686 229.699 310.208C228.015 309.854 226.36 309.499 224.704 309.144C222.133 308.612 219.563 308.08 217.021 307.519C211.703 306.396 206.472 305.303 201.36 304.21C195.449 302.998 189.628 301.758 183.895 300.546C162.767 296.083 143.884 292.094 129.108 288.991C127.512 288.636 125.917 288.311 124.351 287.987C118.795 286.804 113.919 285.77 109.871 284.914C109.516 284.854 109.161 284.766 108.836 284.707C101.212 283.111 96.7199 282.164 96.3359 282.076C90.7813 280.954 85.2853 280.392 79.7879 280.392C42.8493 280.392 9.63461 306.19 1.74394 343.779C-7.38673 386.922 20.2426 429.358 63.4173 438.399C68.9133 439.582 74.4986 440.143 79.8759 440.143C90.2186 440.143 100.267 438.104 109.575 434.38L123.464 430.983C132.684 470.048 151.98 505.894 179.079 535.06C210.284 568.511 251.655 593.156 299.823 603.351C315.78 606.75 331.885 608.375 347.607 608.375C453.989 608.375 549.704 534.055 572.457 425.634L576.387 407.027C579.031 394.503 571.056 382.214 558.532 379.57Z" fill="#F17041"/>
<path d="M779.17 286.953C778.489 279.884 776.14 274.16 771.758 270.458C767.722 266.752 761.998 264.734 754.933 264.734C729.343 264.734 725.645 286.953 725.645 308.157C725.645 329.364 729.343 351.241 754.933 351.241C769.402 351.241 779.504 339.463 780.849 325.663H844.469C841.44 349.223 830.33 367.736 814.174 380.525C798.355 392.98 777.148 399.715 753.58 399.715C701.07 399.715 659 363.361 659 308.157C659 252.952 701.07 216.264 753.58 216.264C799.362 216.264 838.411 238.813 842.447 286.953H779.17Z" fill="white"/>
<path d="M870.232 155.001H936.885V239.49H937.554C948.994 226.024 963.805 216.264 992.078 216.264C1023.39 216.264 1052 235.449 1052 275.505V395.34H985.351V303.786C985.351 283.585 982.998 269.446 963.47 269.446C952.023 269.446 936.885 275.17 936.885 303.109V395.34H870.232V155.001Z" fill="white"/>
<path d="M1194.35 316.91C1186.27 320.95 1177.19 323.306 1168.1 325.328C1153.28 328.692 1145.55 332.394 1145.55 344.176C1145.55 352.252 1154.29 360.332 1166.41 360.332C1181.56 360.332 1193.34 351.241 1194.35 333.07V316.91ZM1258.3 356.296C1258.3 369.42 1258.98 384.231 1266.39 395.34H1198.39C1196.71 390.627 1195.7 383.558 1196.03 378.845H1195.36C1181.22 395.006 1160.7 399.715 1139.15 399.715C1105.49 399.715 1077.55 383.558 1077.55 346.87C1077.55 291.666 1142.18 293.684 1176.18 287.287C1185.27 285.607 1194.35 282.913 1194.35 271.807C1194.35 260.021 1183.25 255.647 1172.47 255.647C1151.94 255.647 1147.9 266.083 1147.56 273.487H1085.63C1086.63 248.916 1098.75 234.439 1115.92 226.363C1132.75 218.282 1154.97 216.264 1175.5 216.264C1258.98 216.264 1258.3 250.934 1258.3 284.596V356.296Z" fill="white"/>
<path d="M1293.15 220.638H1357.11V248.581H1357.78C1368.55 227.708 1382.69 216.268 1406.93 216.268C1413.66 216.268 1420.05 217.275 1426.45 218.955V277.865C1419.72 275.509 1413.66 273.49 1400.2 273.49C1373.94 273.49 1359.81 288.974 1359.81 326.335V395.34H1293.15V220.638Z" fill="white"/>
<path d="M1550.07 220.636H1585.75V261.702H1550.07V322.631C1550.07 338.787 1553.77 345.856 1570.6 345.856C1575.64 345.856 1580.7 345.522 1585.75 344.845V395.337C1572.28 395.337 1557.13 397.355 1543 397.355C1514.72 397.355 1483.41 392.981 1483.41 345.18V261.702H1453.8V220.636H1483.41V167.453H1550.07V220.636Z" fill="white"/>
<path d="M1700.18 247.841C1667.86 247.841 1651.37 272.412 1651.37 309.442C1651.37 344.446 1669.21 370.705 1700.18 370.705C1735.18 370.705 1748.31 339.737 1748.31 309.442C1748.31 277.794 1731.82 247.841 1700.18 247.841ZM1614.34 155.944H1652.72V244.811H1653.39C1663.82 227.978 1685.7 217.545 1705.23 217.545C1760.1 217.545 1786.69 259.284 1786.69 310.111C1786.69 356.897 1763.12 401 1711.62 401C1688.06 401 1662.81 395.276 1651.37 372.381H1650.69V396.283H1614.34V155.944Z" fill="white"/>
<path d="M1816.92 222.256H1852.94V255.919H1853.61C1857.98 237.406 1880.88 217.543 1904.44 217.543C1913.19 217.543 1915.55 218.216 1918.91 218.551V255.581C1913.53 254.908 1907.8 253.897 1902.42 253.897C1876.16 253.897 1855.29 275.108 1855.29 313.476V396.285H1816.92V222.256Z" fill="white"/>
<path d="M2054.08 293.954C2052.73 269.717 2036.24 247.837 2010.32 247.837C1983.72 247.837 1965.55 268.033 1964.54 293.954H2054.08ZM1964.54 319.198C1964.54 346.464 1979.35 370.701 2011.33 370.701C2033.54 370.701 2047.01 360.941 2053.74 341.747H2090.09C2081.68 379.792 2049.36 400.996 2011.33 400.996C1956.8 400.996 1926.17 362.955 1926.17 309.438C1926.17 259.953 1958.48 217.542 2010.32 217.542C2065.18 217.542 2098.85 267.022 2092.45 319.198H1964.54Z" fill="white"/>
<path d="M2099.3 222.256H2140.03L2174.03 352.19H2174.7L2207.35 222.256H2246.06L2277.37 352.19H2278.04L2313.38 222.256H2352.43L2297.9 396.285H2258.51L2226.2 267.024H2225.53L2193.55 396.285H2153.16L2099.3 222.256Z" fill="white"/>
</g>
<defs>
<clipPath id="clip0_1803_13539">
<rect width="2353" height="609" fill="white"/>
</clipPath>
</defs>
</svg>
